# xmcd
#
# Track frame offsets: 
#        182
#        15562
#        32137
#        49577
#        66577
#        83965
#        100220
#        117430
#        132965
#        151682
#        169672
#        187530
#        207730
#        223085
#        238742
#        254495
#        270932
#        288195
#        303935
#
# Disc length: 4292 seconds
#
# Revision: 3
# Processed by: cddbd v1.5.1PL2 Copyright (c) Steve Scherf et al.
# Submitted via: ExactAudioCopy v0.95b4
#
DISCID=0910c213
DTITLE=Various Artist - Holiday Dance Mix Vol. 1 CD1
DYEAR=1997
DGENRE=Dance
TTITLE0=No Doubt - Just A Girl
TTITLE1=Blumchen - Nur Getraumt
TTITLE2=DJ Bobo - It's My Life
TTITLE3=Brooklyn Bounce - The Theme (of Progressive Attack)
TTITLE4=A.K.-S.W.I.F.T. - Light In Me
TTITLE5=Sash! - Encore Une Fois
TTITLE6=Die Fantastischen Vier - Der Picknicker
TTITLE7=Heath Hunter and The Pleasure Company - Revolution In Paradise
TTITLE8=R. Kelly - Summer Bunnies
TTITLE9=Jamiroquai - Cosmic Girl
TTITLE10=Laaya - Hey Little Girl
TTITLE11=No Mercy - Where Do You Go
TTITLE12=Pandora - Smile N Shine
TTITLE13=Gala - Freed From Desire
TTITLE14=Aqua - Roses Are Red
TTITLE15=Scooter - Endless Summer
TTITLE16=Fresh 'N' Funky - Fresh 'N' Funky
TTITLE17=Sequential One - I Wanna Make U...
TTITLE18=Max Dejay - Rhythm Is A Dancer
EXTD=
EXTT0=
EXTT1=
EXTT2=
EXTT3=
EXTT4=
EXTT5=
EXTT6=
EXTT7=
EXTT8=
EXTT9=
EXTT10=
EXTT11=
EXTT12=
EXTT13=
EXTT14=
EXTT15=
EXTT16=
EXTT17=
EXTT18=
PLAYORDER=
